<?xml version="1.0" standalone="no"?>
<!DOCTYPE svg PUBLIC "-//W3C//DTD SVG 20010904//EN"
 "http://www.w3.org/TR/2001/REC-SVG-20010904/DTD/svg10.dtd">
<svg version="1.0" xmlns="http://www.w3.org/2000/svg"
 width="512.000000pt" height="512.000000pt" viewBox="0 0 512.000000 512.000000"
 preserveAspectRatio="xMidYMid meet">

<g transform="translate(0.000000,512.000000) scale(0.100000,-0.100000)"
fill="#000000" stroke="none">
<path d="M1280 4695 l0 -215 -215 0 -215 0 2 -212 3 -213 213 -3 212 -2 0
-210 0 -210 213 -2 212 -3 3 -212 2 -213 210 0 210 0 2 -212 3 -213 213 -3
212 -2 0 -210 0 -210 -212 -2 -213 -3 -3 -212 -2 -213 -210 0 -210 0 -2 -212
-3 -213 -212 -3 -213 -2 0 -210 0 -210 -212 -2 -213 -3 -3 -212 -2 -213 215 0
215 0 0 -215 0 -215 425 0 425 0 0 215 0 215 215 0 215 0 0 215 0 215 215 0
215 0 0 210 0 210 210 0 210 0 0 215 0 215 215 0 215 0 0 215 0 215 215 0 215
0 0 210 0 210 -215 0 -215 0 0 215 0 215 -215 0 -215 0 0 215 0 215 -210 0
-210 0 0 210 0 210 -215 0 -215 0 0 215 0 215 -215 0 -215 0 0 215 0 215 -425
0 -425 0 0 -215z"/>
</g>
</svg>
