<?xml version="1.0" standalone="no"?>
<!DOCTYPE svg PUBLIC "-//W3C//DTD SVG 20010904//EN"
 "http://www.w3.org/TR/2001/REC-SVG-20010904/DTD/svg10.dtd">
<svg version="1.0" xmlns="http://www.w3.org/2000/svg"
 width="512.000000pt" height="512.000000pt" viewBox="0 0 512.000000 512.000000"
 preserveAspectRatio="xMidYMid meet">

<g transform="translate(0.000000,512.000000) scale(0.100000,-0.100000)"
fill="#000000" stroke="none">
<path d="M1204 5101 c-17 -11 -36 -34 -43 -52 -8 -23 -11 -342 -11 -1140 l0
-1109 -303 0 c-282 0 -305 -1 -320 -18 -15 -16 -17 -49 -17 -248 0 -183 3
-234 14 -250 13 -17 30 -19 210 -22 l196 -3 0 -205 c0 -302 -4 -297 245 -292
l157 3 24 28 c24 28 24 30 24 248 l0 219 125 0 125 0 0 -221 0 -221 29 -29 29
-29 157 0 c157 0 186 5 212 39 9 11 12 79 13 239 l0 222 140 0 140 0 0 -222
c0 -123 3 -233 6 -245 7 -27 40 -39 59 -23 12 10 15 55 15 251 l0 239 120 0
120 0 0 -234 c0 -200 2 -237 16 -250 8 -9 21 -16 28 -16 33 0 36 23 36 262 l0
238 135 0 135 0 0 -234 c0 -200 2 -237 16 -250 8 -9 21 -16 28 -16 33 0 36 23
36 262 l0 238 130 0 130 0 0 -197 c0 -109 5 -215 11 -235 16 -60 42 -68 224
-68 l157 0 29 29 29 29 0 221 0 221 130 0 130 0 2 -241 c3 -221 5 -243 21
-253 15 -9 22 -7 38 13 18 21 19 40 19 252 l0 228 216 3 c200 3 217 4 230 22
11 16 14 67 14 251 0 212 -2 233 -18 248 -16 15 -54 17 -320 17 l-302 0 0 863
0 863 -297 297 -298 297 -1070 0 c-1034 0 -1071 -1 -1101 -19z m2096 -310 l0
-249 26 -31 26 -31 269 0 269 0 0 -840 0 -840 -1330 0 -1330 0 0 1104 c0 607
3 1111 6 1120 6 14 106 16 1035 16 l1029 0 0 -249z m318 -239 c-117 -1 -218 0
-225 2 -10 4 -13 57 -13 228 l0 223 225 -225 225 -225 -212 -3z m920 -2019
l-3 -188 -1975 0 -1975 0 -3 188 -2 187 1980 0 1980 0 -2 -187z m-3238 -483
l0 -210 -145 0 -145 0 0 210 0 210 145 0 145 0 0 -210z m698 3 l-3 -208 -142
-3 -143 -3 0 211 0 210 145 0 145 0 -2 -207z m1732 -3 l0 -211 -142 3 -143 3
-3 208 -2 207 145 0 145 0 0 -210z"/>
<path d="M1420 4249 c-9 -16 -8 -25 6 -40 17 -18 41 -19 789 -19 586 0 774 3
783 12 17 17 15 55 -4 62 -9 3 -364 6 -789 6 l-774 0 -11 -21z"/>
<path d="M1420 3849 c-9 -16 -8 -25 6 -40 17 -18 40 -19 691 -19 446 0 681 4
694 10 21 12 25 40 7 58 -9 9 -178 12 -700 12 -686 0 -687 0 -698 -21z"/>
<path d="M3093 3863 c-16 -6 -17 -45 -1 -61 16 -16 530 -17 559 -2 21 12 25
40 7 58 -9 9 -85 12 -282 11 -149 0 -277 -3 -283 -6z"/>
<path d="M1426 3424 c-9 -8 -16 -19 -16 -24 0 -5 7 -16 16 -24 14 -15 126 -16
1121 -14 1041 3 1106 4 1117 21 8 12 8 22 0 35 -11 16 -76 17 -1117 20 -995 2
-1107 1 -1121 -14z"/>
<path d="M946 1504 c-14 -13 -16 -55 -16 -304 0 -249 2 -291 16 -304 19 -19
36 -20 52 -4 17 17 17 599 0 616 -16 16 -33 15 -52 -4z"/>
<path d="M1296 1499 l-26 -20 0 -279 0 -279 26 -20 c25 -20 40 -21 211 -21
182 0 184 0 208 25 l25 24 0 271 0 271 -25 24 c-24 25 -26 25 -208 25 -171 0
-186 -1 -211 -21z m364 -299 l0 -240 -155 0 -155 0 0 240 0 240 155 0 155 0 0
-240z"/>
<path d="M2012 1508 c-9 -9 -12 -91 -12 -309 0 -258 2 -298 16 -310 11 -9 20
-10 32 -2 15 9 17 43 20 308 2 298 0 325 -32 325 -7 0 -17 -5 -24 -12z"/>
<path d="M2346 1504 c-14 -13 -16 -55 -16 -304 0 -249 2 -291 16 -304 19 -19
36 -20 52 -4 17 17 17 599 0 616 -16 16 -33 15 -52 -4z"/>
<path d="M2686 1504 c-14 -13 -16 -55 -16 -304 0 -249 2 -291 16 -304 19 -19
36 -20 52 -4 17 17 17 599 0 616 -16 16 -33 15 -52 -4z"/>
<path d="M3045 1495 l-25 -24 0 -271 0 -271 25 -24 c24 -25 26 -25 210 -25
184 0 186 0 210 25 l25 24 0 271 0 271 -25 24 c-24 25 -26 25 -210 25 -184 0
-186 0 -210 -25z m365 -295 l0 -240 -155 0 -155 0 0 240 0 240 155 0 155 0 0
-240z"/>
<path d="M3755 1495 l-25 -24 0 -271 0 -271 25 -24 c24 -25 26 -25 210 -25
184 0 186 0 210 25 l25 24 0 271 0 271 -25 24 c-24 25 -26 25 -210 25 -184 0
-186 0 -210 -25z m365 -295 l0 -240 -155 0 -155 0 0 240 0 240 155 0 155 0 0
-240z"/>
<path d="M946 624 c-14 -13 -16 -55 -16 -300 0 -178 4 -293 10 -305 12 -21 40
-25 58 -7 17 17 17 599 0 616 -16 16 -33 15 -52 -4z"/>
<path d="M1295 615 l-25 -24 0 -274 c0 -349 -23 -317 234 -317 186 0 187 0
212 25 l25 25 -3 276 -3 276 -24 19 c-21 17 -41 19 -208 19 -182 0 -184 0
-208 -25z m365 -295 l0 -240 -155 0 -155 0 0 240 0 240 155 0 155 0 0 -240z"/>
<path d="M2012 628 c-9 -9 -12 -91 -12 -309 0 -317 2 -329 50 -314 20 6 20 13
20 309 0 303 -3 326 -35 326 -6 0 -16 -5 -23 -12z"/>
<path d="M2350 630 c-13 -8 -15 -54 -18 -292 -2 -156 0 -293 3 -305 6 -26 41
-39 60 -23 13 10 15 62 15 309 0 296 -3 321 -34 321 -6 0 -18 -5 -26 -10z"/>
<path d="M2686 624 c-14 -13 -16 -55 -16 -300 0 -178 4 -293 10 -305 12 -21
40 -25 58 -7 17 17 17 599 0 616 -16 16 -33 15 -52 -4z"/>
<path d="M3045 615 l-25 -24 0 -271 0 -271 25 -24 c24 -25 26 -25 214 -25
l190 0 20 26 c20 26 21 39 21 296 l0 269 -25 24 c-24 25 -26 25 -210 25 -184
0 -186 0 -210 -25z m365 -295 l0 -240 -155 0 -155 0 0 240 0 240 155 0 155 0
0 -240z"/>
<path d="M3755 615 l-25 -24 0 -271 0 -271 25 -24 c24 -25 26 -25 214 -25
l190 0 20 26 c20 26 21 39 21 296 l0 269 -25 24 c-24 25 -26 25 -210 25 -184
0 -186 0 -210 -25z m365 -295 l0 -240 -155 0 -155 0 0 240 0 240 155 0 155 0
0 -240z"/>
</g>
</svg>
