<?xml version="1.0" standalone="no"?>
<!DOCTYPE svg PUBLIC "-//W3C//DTD SVG 20010904//EN"
 "http://www.w3.org/TR/2001/REC-SVG-20010904/DTD/svg10.dtd">
<svg version="1.0" xmlns="http://www.w3.org/2000/svg"
 width="512.000000pt" height="512.000000pt" viewBox="0 0 512.000000 512.000000"
 preserveAspectRatio="xMidYMid meet">

<g transform="translate(0.000000,512.000000) scale(0.100000,-0.100000)"
fill="#000000" stroke="none">
<path d="M1560 4955 l0 -165 -277 -2 -278 -3 -3 -167 -2 -168 -165 0 -165 0 0
-165 0 -165 -167 -2 -168 -3 -3 -277 -2 -278 -165 0 -165 0 0 -1000 0 -1000
165 0 165 0 2 -278 3 -277 168 -3 167 -2 0 -165 0 -165 165 0 165 0 2 -167 3
-168 278 -3 277 -2 0 -165 0 -165 1000 0 1000 0 0 165 0 165 278 2 277 3 3
168 2 167 165 0 165 0 0 165 0 165 168 2 167 3 3 278 2 277 165 0 165 0 0
1000 0 1000 -165 0 -165 0 -2 278 -3 277 -167 3 -168 2 0 165 0 165 -165 0
-165 0 -2 168 -3 167 -277 3 -278 2 0 165 0 165 -1000 0 -1000 0 0 -165z
m2000 -335 l0 -170 280 0 280 0 0 -165 0 -165 165 0 165 0 0 -280 0 -280 170
0 170 0 0 -1000 0 -1000 -170 0 -170 0 0 -280 0 -280 -165 0 -165 0 0 -165 0
-165 -280 0 -280 0 0 -170 0 -170 -1000 0 -1000 0 0 170 0 170 -280 0 -280 0
0 165 0 165 -165 0 -165 0 0 280 0 280 -170 0 -170 0 0 1000 0 1000 170 0 170
0 0 280 0 280 165 0 165 0 0 165 0 165 280 0 280 0 0 170 0 170 1000 0 1000 0
0 -170z"/>
<path d="M2450 3615 l0 -835 -500 0 -500 0 0 -165 0 -165 665 0 665 0 0 1000
0 1000 -165 0 -165 0 0 -835z"/>
</g>
</svg>
