<?xml version="1.0" standalone="no"?>
<!DOCTYPE svg PUBLIC "-//W3C//DTD SVG 20010904//EN"
 "http://www.w3.org/TR/2001/REC-SVG-20010904/DTD/svg10.dtd">
<svg version="1.0" xmlns="http://www.w3.org/2000/svg"
 width="512.000000pt" height="512.000000pt" viewBox="0 0 512.000000 512.000000"
 preserveAspectRatio="xMidYMid meet">

<g transform="translate(0.000000,512.000000) scale(0.100000,-0.100000)"
fill="#000000" stroke="none">
<path d="M660 2560 l0 -1900 1900 0 1900 0 0 1900 0 1900 -1900 0 -1900 0 0
-1900z m3490 0 l0 -1590 -160 0 -160 0 0 160 0 160 -160 0 -160 0 0 -160 0
-160 -315 0 -315 0 0 160 0 160 -160 0 -160 0 0 -160 0 -160 -795 0 -795 0 0
160 0 160 160 0 160 0 0 160 0 160 -160 0 -160 0 0 315 0 315 160 0 160 0 0
160 0 160 -160 0 -160 0 0 795 0 795 1590 0 1590 0 0 -1590z"/>
<path d="M2880 3670 l0 -160 -160 0 -160 0 0 -315 0 -315 160 0 160 0 0 -160
0 -160 315 0 315 0 0 160 0 160 160 0 160 0 0 315 0 315 -160 0 -160 0 0 160
0 160 -315 0 -315 0 0 -160z m630 -475 l0 -315 -315 0 -315 0 0 315 0 315 315
0 315 0 0 -315z"/>
<path d="M1610 3035 l0 -155 -160 0 -160 0 0 -160 0 -160 160 0 160 0 0 160 0
160 160 0 160 0 0 -160 0 -160 155 0 155 0 0 -160 0 -160 160 0 160 0 0 -155
0 -155 160 0 160 0 0 -160 0 -160 155 0 155 0 0 160 0 160 -155 0 -155 0 0
155 0 155 -160 0 -160 0 0 160 0 160 -160 0 -160 0 0 160 0 160 -155 0 -155 0
0 155 0 155 -160 0 -160 0 0 -155z"/>
<path d="M1610 2085 l0 -155 160 0 160 0 0 -160 0 -160 155 0 155 0 0 -160 0
-160 160 0 160 0 0 160 0 160 -160 0 -160 0 0 160 0 160 -155 0 -155 0 0 155
0 155 -160 0 -160 0 0 -155z"/>
<path d="M1297 1924 c-4 -4 -7 -76 -7 -161 l0 -153 160 0 161 0 -3 158 -3 157
-151 3 c-82 1 -153 -1 -157 -4z"/>
<path d="M3194 1597 c-2 -7 -3 -78 -2 -157 l3 -145 158 -3 157 -3 0 161 0 160
-155 0 c-118 0 -157 -3 -161 -13z"/>
</g>
</svg>
